<svg width="28" height="28" viewBox="0 0 28 28" fill="none" xmlns="http://www.w3.org/2000/svg">
<path d="M22.69 16.9405C22.11 17.3005 21.56 17.5805 21.07 17.7805C20.73 17.9305 20.36 18.0005 20 18.0005C19.64 18.0005 19.27 17.9305 18.93 17.7805C18.06 17.4205 17 16.8205 15.97 16.0005H6.42L7.9 12.6005C8.06 12.2405 8.42 12.0005 8.81 12.0005H12.75C12.47 11.3805 12.25 10.7105 12.13 10.0005H8.81C7.62 10.0005 6.54 10.7105 6.06 11.8005L4.08 16.3505C4.07 16.3705 4.08 16.3905 4.07 16.4205C2.85 17.0405 2 18.2905 2 19.7505V23.5005C2 24.1635 2.26339 24.7994 2.73223 25.2683C3.20107 25.7371 3.83696 26.0005 4.5 26.0005C5.16304 26.0005 5.79893 25.7371 6.26777 25.2683C6.73661 24.7994 7 24.1635 7 23.5005V23.0005H19V23.5005C19 24.1635 19.2634 24.7994 19.7322 25.2683C20.2011 25.7371 20.837 26.0005 21.5 26.0005C22.163 26.0005 22.7989 25.7371 23.2678 25.2683C23.7366 24.7994 24 24.1635 24 23.5005V19.7505C24 18.6205 23.49 17.6105 22.69 16.9405ZM8 21.0005H6C5.45 21.0005 5 20.5505 5 20.0005C5 19.4505 5.45 19.0005 6 19.0005H8C8.55 19.0005 9 19.4505 9 20.0005C9 20.5505 8.55 21.0005 8 21.0005ZM20 21.0005H18C17.45 21.0005 17 20.5505 17 20.0005C17 19.4505 17.45 19.0005 18 19.0005H20C20.55 19.0005 21 19.4505 21 20.0005C21 20.5505 20.55 21.0005 20 21.0005Z" fill="white"/>
<path d="M25.491 3.82652L20.241 2.04052C20.0849 1.98649 19.9151 1.98649 19.759 2.04052L14.509 3.82652C14.3605 3.87673 14.2316 3.97225 14.1403 4.09962C14.049 4.22699 13.9999 4.3798 14 4.53652V8.55452C14 13.4585 19.474 15.8425 19.707 15.9415C19.7997 15.9806 19.8994 16.0008 20 16.0008C20.1006 16.0008 20.2003 15.9806 20.293 15.9415C20.526 15.8425 26 13.4585 26 8.55452V4.53652C26.0001 4.3798 25.951 4.22699 25.8597 4.09962C25.7684 3.97225 25.6395 3.87673 25.491 3.82652ZM23.286 7.61852L20.536 11.1185C20.4527 11.2245 20.3488 11.3125 20.2306 11.3773C20.1125 11.4421 19.9824 11.4823 19.8483 11.4956C19.7141 11.5089 19.5787 11.4949 19.4501 11.4545C19.3215 11.4141 19.2024 11.3481 19.1 11.2605L17.35 9.76052C17.2461 9.67639 17.1602 9.57229 17.0973 9.45439C17.0343 9.33648 16.9957 9.20715 16.9836 9.07404C16.9715 8.94094 16.9862 8.80675 17.0268 8.67943C17.0674 8.5521 17.1332 8.43421 17.2202 8.33273C17.3071 8.23124 17.4136 8.14822 17.5332 8.08858C17.6528 8.02893 17.7831 7.99387 17.9165 7.98546C18.0499 7.97705 18.1836 7.99546 18.3098 8.03962C18.4359 8.08377 18.552 8.15276 18.651 8.24252L19.609 9.06352L21.714 6.38452C21.795 6.2813 21.8956 6.19505 22.0099 6.13069C22.1243 6.06634 22.2502 6.02514 22.3805 6.00945C22.5108 5.99375 22.6429 6.00388 22.7692 6.03923C22.8956 6.07459 23.0138 6.13449 23.117 6.21552C23.2202 6.29654 23.3065 6.39711 23.3708 6.51146C23.4352 6.62582 23.4764 6.75174 23.4921 6.88202C23.5078 7.0123 23.4976 7.14439 23.4623 7.27076C23.4269 7.39713 23.367 7.5153 23.286 7.61852Z" fill="white"/>
</svg>
