<svg width="24" height="24" viewBox="0 0 24 24" fill="none" xmlns="http://www.w3.org/2000/svg">
<path d="M18.8571 10.8385H7.42857L11.1886 6.99736C11.2957 6.88883 11.3807 6.7597 11.4387 6.61743C11.4968 6.47516 11.5266 6.32256 11.5266 6.16843C11.5266 6.01431 11.4968 5.86171 11.4387 5.71944C11.3807 5.57716 11.2957 5.44804 11.1886 5.3395C10.9744 5.12205 10.6848 5 10.3829 5C10.0809 5 9.79127 5.12205 9.57714 5.3395L4.67429 10.3598C4.24504 10.7957 4.00255 11.3877 4 12.006C4.00556 12.6202 4.24782 13.2075 4.67429 13.6405L9.57714 18.6608C9.6837 18.7689 9.81006 18.8544 9.94899 18.9127C10.0879 18.9709 10.2367 19.0005 10.3869 19C10.5371 18.9994 10.6857 18.9687 10.8242 18.9095C10.9627 18.8503 11.0885 18.7638 11.1943 18.6549C11.3001 18.5461 11.3839 18.417 11.4409 18.2751C11.4978 18.1331 11.5269 17.9811 11.5264 17.8277C11.5258 17.6743 11.4957 17.5225 11.4378 17.381C11.3798 17.2395 11.2951 17.111 11.1886 17.0029L7.42857 13.1735H18.8571C19.1602 13.1735 19.4509 13.0505 19.6653 12.8315C19.8796 12.6126 20 12.3156 20 12.006C20 11.6963 19.8796 11.3994 19.6653 11.1804C19.4509 10.9615 19.1602 10.8385 18.8571 10.8385Z" fill="black"/>
</svg>
