<svg width="28" height="28" viewBox="0 0 28 28" fill="none" xmlns="http://www.w3.org/2000/svg">
<path d="M14.7798 2H20.9071V3.91185H14.7798V2Z" fill="white"/>
<path d="M25.0577 2H22.4501V3.91185H23.316C23.7484 3.91185 24.1156 4.26569 24.1075 4.698C24.0997 5.11722 23.7573 5.45468 23.3362 5.45468H4.79158C4.35918 5.45468 3.99197 5.10085 4.00009 4.66854C4.00792 4.24932 4.35026 3.91185 4.77136 3.91185H5.61018V2H2.94225C2.42185 2 2 2.42185 2 2.94225V15.0372C2 15.5576 2.42185 15.9795 2.94225 15.9795H25.0577C25.5781 15.9795 26 15.5576 26 15.0372V2.94225C26 2.42185 25.5781 2 25.0577 2ZM23.8911 18.8586H23.1949V17.5223H21.652V18.8586H15.9561C15.9471 18.8586 15.9384 18.8597 15.9296 18.8599V17.5223H12.0877V18.8591C12.0848 18.859 12.0821 18.8586 12.0793 18.8586H6.75832V17.5223H5.21549V18.8586H4.12613C3.69373 18.8586 3.32653 19.2125 3.33464 19.6448C3.34248 20.064 3.68482 20.4015 4.10592 20.4015H12.0793C12.0821 20.4015 12.0848 20.4011 12.0877 20.401V25.2724C12.0877 25.6834 12.4209 26.0166 12.8319 26.0166H15.1853C15.5964 26.0166 15.9296 25.6834 15.9296 25.2724V20.4001C15.9384 20.4004 15.9471 20.4015 15.9561 20.4015H23.9113C24.3324 20.4015 24.6747 20.064 24.6826 19.6448C24.6907 19.2125 24.3235 18.8586 23.8911 18.8586Z" fill="white"/>
<path d="M7.15283 2H13.237V3.91185H7.15283V2Z" fill="white"/>
</svg>
