<svg width="28" height="28" viewBox="0 0 28 28" fill="none" xmlns="http://www.w3.org/2000/svg">
<path d="M13.3684 1L6.42105 12.3684H20.3158L13.3684 1ZM20.3158 26.2632C21.0623 26.2632 21.8014 26.1161 22.491 25.8305C23.1807 25.5448 23.8073 25.1261 24.3351 24.5983C24.863 24.0705 25.2817 23.4438 25.5673 22.7542C25.853 22.0646 26 21.3254 26 20.5789C26 19.8325 25.853 19.0933 25.5673 18.4037C25.2817 17.7141 24.863 17.0874 24.3351 16.5596C23.8073 16.0318 23.1807 15.6131 22.491 15.3274C21.8014 15.0418 21.0623 14.8947 20.3158 14.8947C18.8082 14.8947 17.3624 15.4936 16.2964 16.5596C15.2304 17.6256 14.6316 19.0714 14.6316 20.5789C14.6316 22.0865 15.2304 23.5323 16.2964 24.5983C17.3624 25.6643 18.8082 26.2632 20.3158 26.2632ZM2 15.5263H12.1053V25.6316H2V15.5263Z" fill="white"/>
</svg>
