<svg width="28" height="26" viewBox="0 0 28 26" fill="none" xmlns="http://www.w3.org/2000/svg">
<path d="M14 10.4766C16.2234 10.4766 18.0258 8.80288 18.0258 6.73828C18.0258 4.67369 16.2234 3 14 3C11.7766 3 9.97412 4.67369 9.97412 6.73828C9.97412 8.80288 11.7766 10.4766 14 10.4766Z" fill="white"/>
<path d="M22.1442 10.4766C23.5498 10.4766 24.6893 9.41849 24.6893 8.11328C24.6893 6.80808 23.5498 5.75 22.1442 5.75C20.7386 5.75 19.5991 6.80808 19.5991 8.11328C19.5991 9.41849 20.7386 10.4766 22.1442 10.4766Z" fill="white"/>
<path d="M5.85562 10.4766C7.26122 10.4766 8.40069 9.41849 8.40069 8.11328C8.40069 6.80808 7.26122 5.75 5.85562 5.75C4.45001 5.75 3.31055 6.80808 3.31055 8.11328C3.31055 9.41849 4.45001 10.4766 5.85562 10.4766Z" fill="white"/>
<path d="M8.36332 12.5988C7.36149 11.8366 6.45419 11.9375 5.29582 11.9375C3.56332 11.9375 2.15381 13.2386 2.15381 14.8375V19.5301C2.15381 20.2245 2.76416 20.7891 3.51473 20.7891C6.75511 20.7891 6.36475 20.8435 6.36475 20.6593C6.36475 17.3341 5.9406 14.8956 8.36332 12.5988Z" fill="white"/>
<path d="M15.1018 11.9545C13.0786 11.7978 11.3199 11.9563 9.80301 13.119C7.26455 15.007 7.75307 17.5492 7.75307 20.6591C7.75307 21.4819 8.47401 22.1639 9.37358 22.1639C19.1412 22.1639 19.5299 22.4565 20.1092 21.2654C20.2991 20.8626 20.2471 20.9906 20.2471 17.1374C20.2471 14.0769 17.3932 11.9545 15.1018 11.9545ZM22.7042 11.9373C21.5395 11.9373 20.6372 11.8375 19.6367 12.5986C22.0413 14.8784 21.6353 17.1505 21.6353 20.6591C21.6353 20.8445 21.3112 20.7889 24.4367 20.7889C25.2141 20.7889 25.8462 20.2041 25.8462 19.4852V14.8373C25.8462 13.2384 24.4367 11.9373 22.7042 11.9373Z" fill="white"/>
</svg>
