<svg width="28" height="26" viewBox="0 0 28 26" fill="none" xmlns="http://www.w3.org/2000/svg">
<path d="M2.15381 22.5331H25.8461V23.9998H2.15381V22.5331ZM5.70765 10.0664C5.39348 10.0664 5.09216 10.1823 4.87001 10.3886C4.64785 10.5949 4.52304 10.8747 4.52304 11.1664V21.0664H9.2615V11.1664C9.2615 10.8747 9.13669 10.5949 8.91454 10.3886C8.69238 10.1823 8.39107 10.0664 8.07689 10.0664H5.70765ZM12.8153 15.9331C12.5012 15.9331 12.1999 16.049 11.9777 16.2553C11.7555 16.4616 11.6307 16.7414 11.6307 17.0331V21.0664H16.3692V17.0331C16.3692 16.7414 16.2444 16.4616 16.0222 16.2553C15.8001 16.049 15.4988 15.9331 15.1846 15.9331H12.8153ZM19.923 18.1331C19.6089 18.1331 19.3075 18.249 19.0854 18.4553C18.8632 18.6616 18.7384 18.9414 18.7384 19.2331V21.0664H23.4769V19.2331C23.4769 18.9414 23.3521 18.6616 23.1299 18.4553C22.9078 18.249 22.6064 18.1331 22.2923 18.1331H19.923ZM11.8677 11.5918C12.1302 12.4029 12.6074 13.1401 13.2558 13.7358C13.9043 14.3315 14.7031 14.7667 15.5794 15.0018C16.0939 15.1337 16.6252 15.2003 17.1589 15.1998C18.6251 15.1998 20.0312 14.6589 21.068 13.6963C22.1047 12.7336 22.6871 11.4279 22.6871 10.0664C22.6871 9.87196 22.6039 9.68543 22.4558 9.5479C22.3077 9.41038 22.1069 9.33312 21.8974 9.33312H19.1333C18.8191 9.33312 18.5178 9.21722 18.2956 9.01093C18.0735 8.80464 17.9487 8.52485 17.9487 8.23312V5.66645C17.9487 5.47196 17.8655 5.28543 17.7174 5.1479C17.5693 5.01038 17.3684 4.93312 17.1589 4.93312C16.3344 4.9316 15.5199 5.10139 14.7752 5.43003C14.0304 5.75867 13.3743 6.23784 12.8548 6.83245C12.2858 7.49136 11.8985 8.26923 11.7265 9.09859C11.5544 9.92795 11.6029 10.7838 11.8677 11.5918Z" fill="white"/>
<path d="M20.3179 7.86667H25.0564C25.2658 7.86667 25.4667 7.7894 25.6148 7.65188C25.7629 7.51435 25.8461 7.32783 25.8461 7.13333C25.8461 5.77189 25.2637 4.46621 24.2269 3.50352C23.1902 2.54083 21.7841 2 20.3179 2C20.1085 2 19.9076 2.07726 19.7595 2.21479C19.6114 2.35232 19.5282 2.53884 19.5282 2.73333V6.774C19.5282 7.53667 19.8836 7.86667 20.3179 7.86667ZM2.15381 2H13.2102V3.46667H2.15381V2ZM2.15381 4.93333H9.2615V6.4H2.15381V4.93333Z" fill="white"/>
</svg>
