<svg width="40" height="40" viewBox="0 0 40 40" fill="none" xmlns="http://www.w3.org/2000/svg">
<path fill-rule="evenodd" clip-rule="evenodd" d="M6.15385 7.85295C6.15385 4.77816 8.67942 2.28555 11.7949 2.28555H20C20.8497 2.28555 21.5385 2.96536 21.5385 3.80393C21.5385 4.64251 20.8497 5.32232 20 5.32232H11.7949C10.3788 5.32232 9.23077 6.45532 9.23077 7.85295V9.87746C9.23077 10.716 8.54198 11.3958 7.69231 11.3958C6.84264 11.3958 6.15385 10.716 6.15385 9.87746V7.85295ZM7.69231 28.6042C8.54198 28.6042 9.23077 29.284 9.23077 30.1226V32.1471C9.23077 33.5447 10.3788 34.6777 11.7949 34.6777H20C20.8497 34.6777 21.5385 35.3575 21.5385 36.1961C21.5385 37.0347 20.8497 37.7145 20 37.7145H11.7949C8.67942 37.7145 6.15385 35.2218 6.15385 32.1471V30.1226C6.15385 29.284 6.84264 28.6042 7.69231 28.6042Z" fill="#E31C5D"/>
<path fill-rule="evenodd" clip-rule="evenodd" d="M21.5385 5.57235C21.5385 3.80981 23.3184 2.5871 24.9931 3.19925L35.2495 6.94832C36.2554 7.31601 36.9231 8.26277 36.9231 9.32142V30.6785C36.9231 31.7372 36.2554 32.684 35.2495 33.0516L24.9931 36.8007C23.3184 37.4129 21.5385 36.1902 21.5385 34.4276V5.57235ZM26.0618 0.351527C22.3775 -0.995207 18.4615 1.69477 18.4615 5.57235V34.4276C18.4615 38.3052 22.3775 40.9952 26.0618 39.6485L36.3182 35.8994C38.5311 35.0905 40 33.0076 40 30.6785V9.32142C40 6.99239 38.5311 4.9095 36.3182 4.1006L26.0618 0.351527Z" fill="#E31C5D"/>
<path fill-rule="evenodd" clip-rule="evenodd" d="M6.72888 14.8773C6.12808 14.2844 5.15398 14.2844 4.55317 14.8773L0.450605 18.9263C-0.150202 19.5193 -0.150202 20.4807 0.450605 21.0737L4.55317 25.1227C5.15398 25.7156 6.12808 25.7156 6.72888 25.1227C7.32969 24.5297 7.32969 23.5683 6.72888 22.9754L5.25264 21.5184H13.8462C14.6958 21.5184 15.3846 20.8386 15.3846 20C15.3846 19.1614 14.6958 18.4816 13.8462 18.4816H5.25264L6.72888 17.0246C7.32969 16.4317 7.32969 15.4703 6.72888 14.8773Z" fill="#E31C5D"/>
</svg>
