<svg width="28" height="28" viewBox="0 0 28 28" fill="none" xmlns="http://www.w3.org/2000/svg">
<path d="M16.9614 14.987C16.4155 14.987 15.9743 15.4294 15.9743 15.9741V19.923C15.9743 20.4669 15.5319 20.9101 14.987 20.9101H12.0255V6.10248C12.0255 5.25942 11.4885 4.50622 10.681 4.22585L10.3887 4.12808H14.987C15.5319 4.12808 15.9743 4.57129 15.9743 5.11537V8.07689C15.9743 8.62167 16.4155 9.064 16.9614 9.064C17.5073 9.064 17.9485 8.62167 17.9485 8.07689V5.11537C17.9485 3.4826 16.6198 2.15385 14.987 2.15385H4.37495C4.33737 2.15385 4.30591 2.17065 4.2694 2.17556C4.22183 2.17158 4.17648 2.15381 4.12821 2.15381C3.03935 2.15385 2.15381 3.03926 2.15381 4.12812V21.8972C2.15381 22.7403 2.69081 23.4935 3.49829 23.7738L9.43914 25.7542C9.64052 25.8163 9.8408 25.846 10.0512 25.846C11.1401 25.846 12.0254 24.9604 12.0254 23.8716V22.8845H14.9869C16.6197 22.8845 17.9485 21.5557 17.9485 19.923V15.9741C17.9485 15.4294 17.5072 14.987 16.9613 14.987H16.9614Z" fill="#4C0AE1"/>
<path d="M25.5566 11.3274L21.6077 7.37881C21.4697 7.24066 21.2939 7.14655 21.1023 7.10839C20.9108 7.07023 20.7123 7.08973 20.5319 7.16443C20.1637 7.31755 19.9227 7.67779 19.9227 8.07671V11.0382H15.9741C15.4291 11.0382 14.9868 11.4804 14.9868 12.0253C14.9868 12.5703 15.4291 13.0125 15.9741 13.0125H19.9227V15.974C19.9227 16.3729 20.1637 16.7331 20.5319 16.8863C20.7123 16.9609 20.9108 16.9804 21.1023 16.9423C21.2938 16.9042 21.4697 16.8101 21.6077 16.672L25.5566 12.7232C25.9425 12.3373 25.9425 11.7134 25.5566 11.3274Z" fill="#4C0AE1"/>
</svg>
