<svg width="93" height="93" viewBox="0 0 93 93" fill="none" xmlns="http://www.w3.org/2000/svg">
<rect width="93" height="93" rx="31" fill="black" fill-opacity="0.08"/>
<path fill-rule="evenodd" clip-rule="evenodd" d="M31.8976 33.7566C31.8976 30.3924 34.6609 27.6652 38.0695 27.6652H47.0469C47.9765 27.6652 48.7302 28.409 48.7302 29.3265C48.7302 30.244 47.9765 30.9878 47.0469 30.9878H38.0695C36.5201 30.9878 35.2641 32.2274 35.2641 33.7566V35.9717C35.2641 36.8892 34.5105 37.6329 33.5808 37.6329C32.6512 37.6329 31.8976 36.8892 31.8976 35.9717V33.7566ZM33.5808 56.4609C34.5105 56.4609 35.2641 57.2047 35.2641 58.1222V60.3372C35.2641 61.8664 36.5201 63.106 38.0695 63.106H47.0469C47.9765 63.106 48.7302 63.8498 48.7302 64.7673C48.7302 65.6848 47.9765 66.4286 47.0469 66.4286H38.0695C34.6609 66.4286 31.8976 63.7014 31.8976 60.3372V58.1222C31.8976 57.2047 32.6512 56.4609 33.5808 56.4609Z" fill="#4C0AE1"/>
<path fill-rule="evenodd" clip-rule="evenodd" d="M48.7302 31.2614C48.7302 29.3329 50.6777 27.9951 52.51 28.6649L63.7317 32.7668C64.8322 33.1691 65.5627 34.205 65.5627 35.3633V58.7305C65.5627 59.8888 64.8322 60.9246 63.7317 61.3269L52.51 65.4289C50.6777 66.0987 48.7302 64.7609 48.7302 62.8324V31.2614ZM53.6792 25.5492C49.6482 24.0757 45.3636 27.0188 45.3636 31.2614V62.8324C45.3636 67.075 49.6482 70.0181 53.6792 68.5446L64.9009 64.4427C67.3221 63.5576 68.9293 61.2787 68.9293 58.7305V35.3633C68.9293 32.8151 67.3221 30.5361 64.9009 29.6511L53.6792 25.5492Z" fill="#4C0AE1"/>
<path fill-rule="evenodd" clip-rule="evenodd" d="M32.5267 41.4421C31.8694 40.7933 30.8036 40.7933 30.1463 41.4421L25.6576 45.8722C25.0002 46.521 25.0002 47.5728 25.6576 48.2216L30.1463 52.6517C30.8036 53.3005 31.8694 53.3005 32.5267 52.6517C33.1841 52.0029 33.1841 50.9511 32.5267 50.3023L30.9116 48.7082H40.3139C41.2435 48.7082 41.9971 47.9644 41.9971 47.0469C41.9971 46.1294 41.2435 45.3856 40.3139 45.3856H30.9116L32.5267 43.7915C33.1841 43.1427 33.1841 42.0909 32.5267 41.4421Z" fill="#4C0AE1"/>
</svg>
