<svg width="24" height="24" viewBox="0 0 24 24" fill="none" xmlns="http://www.w3.org/2000/svg">
<path d="M15.8293 3H4.26172C3.01445 3 2 4.01445 2 5.26172V15.3984C2 15.8785 2.54293 16.1491 2.92617 15.8754L6.14766 13.577C6.41797 13.3844 6.73594 13.2824 7.06797 13.2824H14.1535C15.4008 13.2824 16.4152 12.268 16.4152 11.0207V3.58594C16.4152 3.2625 16.1527 3 15.8293 3ZM12.9832 10.098H6.21328C5.88984 10.098 5.62734 9.83594 5.62734 9.51211C5.62734 9.18867 5.88984 8.92617 6.21328 8.92617H12.9832C13.3066 8.92617 13.5691 9.18867 13.5691 9.51211C13.5691 9.83594 13.3066 10.098 12.9832 10.098ZM12.9832 7.36367H6.21328C5.88984 7.36367 5.62734 7.10156 5.62734 6.77773C5.62734 6.4543 5.88984 6.1918 6.21328 6.1918H12.9832C13.3066 6.1918 13.5691 6.4543 13.5691 6.77773C13.5691 7.10156 13.3066 7.36367 12.9832 7.36367Z" fill="#4C0AE1"/>
<path d="M21.9999 9.80654V19.9429C21.9999 20.4197 21.4598 20.6955 21.0738 20.4198L17.8523 18.1218C17.582 17.9292 17.264 17.8272 16.932 17.8272H9.84644C8.59917 17.8272 7.58472 16.8124 7.58472 15.5651V14.4542H14.1535C16.0468 14.4542 17.5871 12.914 17.5871 11.0206V7.54443H19.7382C20.9855 7.54443 21.9999 8.55928 21.9999 9.80654Z" fill="#4C0AE1"/>
</svg>
