<svg width="24" height="24" viewBox="0 0 24 24" fill="none" xmlns="http://www.w3.org/2000/svg">
<path d="M19.5179 4.52742C18.2829 4.39594 17.0674 4.12112 15.896 3.70853C14.821 3.32863 13.7899 2.83453 12.8203 2.2347C12.5673 2.08118 12.277 2 11.9811 2C11.6852 2 11.3949 2.08118 11.142 2.2347L11.141 2.23562C10.1716 2.83496 9.14084 3.32875 8.06627 3.70853C6.89542 4.12095 5.68056 4.39576 4.44619 4.52742C4.04968 4.5678 3.68225 4.75389 3.41508 5.04965C3.14791 5.34541 3 5.7298 3 6.12836V10.9137C3.00067 12.6795 3.47326 14.4131 4.36886 15.935C5.26446 17.4568 6.55051 18.7117 8.0939 19.5696L11.1981 21.2949C11.4372 21.4294 11.7068 21.5 11.9811 21.5C12.2554 21.5 12.525 21.4294 12.7641 21.2949L15.8683 19.5696C17.4117 18.7117 18.6978 17.4568 19.5934 15.935C20.489 14.4131 20.9616 12.6795 20.9622 10.9137V6.12928C20.9627 5.73069 20.8153 5.34609 20.5484 5.04998C20.2816 4.75388 19.9144 4.56826 19.5179 4.52742ZM15.6463 10.0561L12.1921 13.7407C12.028 13.9157 11.802 14.0197 11.5623 14.0306C11.3226 14.0414 11.0881 13.9582 10.9089 13.7987L8.83634 11.9564C8.74135 11.8774 8.66321 11.7802 8.60657 11.6704C8.54994 11.5606 8.51596 11.4406 8.50667 11.3174C8.49738 11.1942 8.51295 11.0704 8.55248 10.9534C8.592 10.8363 8.65466 10.7284 8.73673 10.6361C8.8188 10.5438 8.9186 10.4689 9.0302 10.4159C9.1418 10.3629 9.26291 10.333 9.38633 10.3278C9.50975 10.3225 9.63296 10.3422 9.74863 10.3856C9.86429 10.429 9.97005 10.4952 10.0596 10.5802L11.4625 11.8265L14.3033 8.79598C14.3895 8.70429 14.4935 8.63117 14.609 8.58111C14.7245 8.53106 14.849 8.50513 14.9748 8.5049C15.1545 8.50481 15.3303 8.55728 15.4806 8.65586C15.6308 8.75443 15.749 8.8948 15.8204 9.05968C15.8919 9.22455 15.9136 9.40674 15.8828 9.58379C15.8521 9.76083 15.7692 9.92501 15.6463 10.0561Z" fill="black"/>
</svg>
