<svg width="23" height="23" viewBox="0 0 23 23" fill="none" xmlns="http://www.w3.org/2000/svg">
<path d="M22.5072 4.63267C22.0746 2.67954 20.1813 0.890374 18.2227 0.51035C17.0297 0.271824 13.7011 -0.0228518 11.4996 0.00140502C9.29802 -0.0228518 5.96943 0.271824 4.77636 0.51035C2.81784 0.890374 0.924456 2.67954 0.491875 4.63267C0.245713 5.81856 0.00359361 7.43209 0 9.63452C0.00359361 11.837 0.245713 13.45 0.491875 14.6359C0.924456 16.5891 2.81784 18.3782 4.77636 18.7583C5.42051 18.8872 6.68726 19.0323 8.06316 19.1347C8.21903 19.3795 8.38793 19.64 8.57076 19.9163C9.30071 21.0218 9.85952 21.7922 10.2827 22.329C10.987 23.2224 12.0125 23.2224 12.7169 22.329C13.14 21.7922 13.6984 21.0218 14.4288 19.9163C14.6116 19.6396 14.7801 19.3795 14.9364 19.1347C16.3123 19.0323 17.579 18.8872 18.2236 18.7583C20.1822 18.3782 22.0755 16.5891 22.5081 14.6359C22.7543 13.45 22.9964 11.837 23 9.63452C22.9964 7.43209 22.7543 5.81901 22.5081 4.63312L22.5072 4.63267ZM12.7694 16.3119C12.7209 16.5855 12.473 16.8334 12.1994 16.8819C12.0337 16.9093 11.8077 16.9354 11.4991 16.9358C11.1909 16.9358 10.965 16.9098 10.7988 16.8819C10.5252 16.8334 10.2773 16.5855 10.2288 16.3119C10.2014 16.1461 10.1753 15.9202 10.1749 15.6116C10.1749 15.3034 10.2009 15.0775 10.2288 14.9113C10.2773 14.6377 10.5252 14.3898 10.7988 14.3413C10.9646 14.3139 11.1905 14.2878 11.4991 14.2874C11.8073 14.2874 12.0332 14.3134 12.1994 14.3413C12.473 14.3898 12.7209 14.6377 12.7694 14.9113C12.7968 15.077 12.8229 15.303 12.8233 15.6116C12.8233 15.9197 12.7973 16.1457 12.7694 16.3119ZM15.5042 8.95443C15.1574 9.44496 14.6377 9.89282 13.8686 10.3631C12.8952 10.9633 12.7393 11.2099 12.7393 11.6928V11.8837C12.7393 12.5683 12.1823 13.1253 11.4978 13.1253C10.8132 13.1253 10.2562 12.5683 10.2562 11.8837V11.4412C10.2562 10.8716 10.3986 10.3883 10.6914 9.96379C10.9753 9.55232 11.4007 9.18667 12.0319 8.81159C13.1948 8.12745 13.4078 7.74339 13.4078 7.23354C13.4078 6.59298 12.862 6.17882 12.0179 6.17882C11.0926 6.17882 10.4902 6.59927 10.2274 7.42895C10.054 7.97607 9.54732 8.34352 8.96695 8.34352C8.93461 8.34352 8.90227 8.34217 8.86993 8.33993C8.46026 8.31028 8.09326 8.09781 7.86327 7.75686C7.63552 7.41951 7.57578 7.0049 7.69931 6.61904C7.98231 5.73681 8.52494 5.00281 9.26837 4.49611C10.0212 3.98312 10.9722 3.71226 12.0175 3.71226C13.0628 3.71226 14.1108 4.05859 14.8546 4.68747C15.6201 5.33477 16.0419 6.22688 16.0419 7.2003C16.0419 7.86871 15.8662 8.44279 15.5042 8.95443Z" fill="white"/>
</svg>
