<svg width="28" height="28" viewBox="0 0 28 28" fill="none" xmlns="http://www.w3.org/2000/svg">
<path d="M26.8371 13.309C26.8371 12.9804 26.5707 12.714 26.2422 12.714H24.6026C24.2741 12.714 24.0076 12.9804 24.0076 13.309V14.0455L23.8851 14.1748L22.9872 9.36095C22.9588 9.20864 22.878 9.07106 22.7588 8.97205C22.6397 8.87305 22.4896 8.81885 22.3347 8.81885H12.9138L13.5306 10.1465H15.4766C15.3874 10.2913 15.3967 10.4115 15.3967 10.5146C15.3967 10.8109 15.6368 11.051 15.9331 11.051H17.6457C17.942 11.051 18.182 10.8109 18.182 10.5146C18.182 10.4151 18.1921 10.2926 18.1021 10.1465H21.7832L22.6216 14.6412H21.6412C21.5609 13.5026 20.6094 12.5844 19.4507 12.5844C18.2919 12.5844 17.3405 13.5025 17.2602 14.6412C12.1887 14.647 10.957 14.6412 10.957 14.6412L11.1688 13.5057L10.3436 13.6835V17.3569C10.5938 17.0986 10.944 16.9378 11.332 16.9378C12.0988 16.9378 12.7085 17.5618 12.7085 18.3151C12.7085 19.0758 12.0922 19.6925 11.332 19.6925C10.9441 19.6925 10.5938 19.5317 10.3436 19.2733V24.4509C10.6192 24.691 10.9793 24.8368 11.3736 24.8368C12.2402 24.8368 12.9427 24.1343 12.9427 23.2677V21.8594H14.3605V22.3912C14.3605 22.6884 14.6013 22.9292 14.8984 22.9292H18.6802C18.9773 22.9292 19.2182 22.6884 19.2182 22.3912V21.8594H20.6359V23.2677C20.6359 24.1343 21.3385 24.8368 22.205 24.8368C23.0716 24.8368 23.7742 24.1343 23.7742 23.2677V21.8594H24.0799C24.6605 21.8594 25.1312 21.3887 25.1312 20.808V17.4341C25.1312 16.5931 24.7611 15.8391 24.1756 15.3242L24.7871 14.6794H26.2422C26.5708 14.6794 26.8371 14.413 26.8371 14.0844V13.3089L26.8371 13.309ZM18.3371 20.7569H15.2414C14.9725 20.7569 14.7545 20.539 14.7545 20.2701C14.7545 20.0013 14.9725 19.7833 15.2414 19.7833H18.3371C18.606 19.7833 18.8239 20.0012 18.8239 20.2701C18.8239 20.539 18.606 20.7569 18.3371 20.7569ZM19.1641 18.8485H14.4144C14.1456 18.8485 13.9276 18.6306 13.9276 18.3617C13.9276 18.0929 14.1455 17.8749 14.4144 17.8749H19.1641C19.4329 17.8749 19.6509 18.0928 19.6509 18.3617C19.6509 18.6306 19.4329 18.8485 19.1641 18.8485ZM18.3728 14.6412C18.4489 14.1138 18.9025 13.6908 19.4506 13.6908C19.9987 13.6908 20.4523 14.1138 20.5284 14.6412H18.3728ZM22.2467 19.6925C21.4864 19.6925 20.8701 19.0758 20.8701 18.3151C20.8701 17.5613 21.4806 16.9378 22.2467 16.9378C23.0069 16.9378 23.6232 17.5544 23.6232 18.3151C23.6231 19.0703 23.0113 19.6925 22.2467 19.6925ZM9.35027 13.8974L8.89534 13.9954C8.39835 14.1026 7.88943 13.9984 7.47695 13.7154C7.32224 13.7926 7.15173 13.8328 6.97884 13.8328C6.58363 13.8328 6.21423 13.621 6.0147 13.28L4.30176 10.3523L4.30219 24.8562C4.30219 25.4879 4.81422 25.9999 5.44592 25.9999C6.07762 25.9999 6.58965 25.4879 6.58965 24.8562V15.7142H7.08348V24.8561C7.08348 25.4878 7.59551 25.9999 8.22721 25.9999C8.85891 25.9999 9.37093 25.4878 9.37093 24.8561C9.37098 24.8562 9.35027 14.4102 9.35027 13.8974Z" fill="white"/>
<path d="M13.0958 11.1728C13.0702 11.1178 11.6295 8.03302 11.6295 8.03302C11.2124 7.15071 10.3123 6.58057 9.33629 6.58057H4.27311C3.03566 6.58057 2.00627 7.5873 2.00001 8.8248V15.8269C1.99734 16.3533 2.40435 16.7821 2.93073 16.7848H2.93559C3.45969 16.7848 3.90938 16.3612 3.912 15.8365V8.83426C3.91254 8.73006 4.00907 8.6459 4.11337 8.64619C4.16343 8.64634 4.21139 8.66634 4.24674 8.70179C4.28208 8.73725 4.30193 8.78527 4.30193 8.83533V9.15506C4.49243 8.85386 4.52095 8.88277 6.56349 7.68777C7.09569 7.37638 7.78027 7.55611 8.09127 8.08774L8.17568 8.23206C8.73937 7.90228 9.40673 8.04311 9.76556 8.65642C10.1101 9.24539 9.88839 8.80996 10.8016 10.7417L8.31001 11.2786C7.79541 11.3895 7.46821 11.8964 7.579 12.411C7.6899 12.9256 8.19693 13.2528 8.71148 13.142L12.3773 12.3521C12.898 12.2399 13.2403 11.7108 13.0958 11.1728Z" fill="white"/>
<path d="M6.83618 5.95069C7.92714 5.95069 8.81153 5.0663 8.81153 3.97534C8.81153 2.88439 7.92714 2 6.83618 2C5.74523 2 4.86084 2.88439 4.86084 3.97534C4.86084 5.0663 5.74523 5.95069 6.83618 5.95069Z" fill="white"/>
<path d="M6.68545 12.1336L5.92878 10.8403C5.6171 10.3075 5.79596 9.62417 6.32875 9.31249L7.47524 8.64169L7.39084 8.49737C7.37058 8.46275 7.34371 8.43246 7.31174 8.40822C7.27978 8.38399 7.24336 8.36629 7.20455 8.35614C7.16575 8.34598 7.12532 8.34357 7.08559 8.34905C7.04585 8.35452 7.00758 8.36777 6.97297 8.38803L5.09062 9.48931C5.056 9.50957 5.02571 9.53645 5.00148 9.56841C4.97725 9.60038 4.95955 9.6368 4.9494 9.6756C4.93925 9.71441 4.93684 9.75483 4.94231 9.79456C4.94777 9.8343 4.96102 9.87257 4.98128 9.90718L6.71499 12.8704C6.74886 12.9285 6.80103 12.9737 6.86333 12.999C6.8017 12.8701 6.75537 12.7345 6.72527 12.5949C6.69251 12.4435 6.67912 12.2884 6.68545 12.1336Z" fill="white"/>
<path d="M9.03879 9.02081C9.01853 8.98619 8.99166 8.9559 8.95969 8.93166C8.92773 8.90743 8.89131 8.88973 8.8525 8.87958C8.8137 8.86942 8.77327 8.86701 8.73354 8.87248C8.6938 8.87796 8.65553 8.8912 8.62092 8.91147L6.73857 10.0128C6.70395 10.033 6.67366 10.0599 6.64943 10.0919C6.6252 10.1238 6.6075 10.1602 6.59735 10.199C6.5872 10.2378 6.58479 10.2783 6.59025 10.318C6.59572 10.3577 6.60897 10.396 6.62922 10.4306L7.03851 11.1301C7.29343 10.7824 7.67142 10.5228 8.12606 10.4248L9.66607 10.093L9.03879 9.02081Z" fill="white"/>
</svg>
