<svg width="28" height="28" viewBox="0 0 28 28" fill="none" xmlns="http://www.w3.org/2000/svg">
<path fill-rule="evenodd" clip-rule="evenodd" d="M17.0956 1.81445C17.0956 1.81445 17.9759 4.3683 17.9759 4.3671C18.7075 4.68069 19.3991 5.08035 20.0361 5.55761L22.6886 5.04285C22.9966 4.98294 23.3139 5.09221 23.5207 5.32846C24.5963 6.56226 25.4221 7.99315 25.9523 9.54172C26.0024 9.68781 26.0133 9.84449 25.9838 9.99609C25.9543 10.1477 25.8855 10.2889 25.7843 10.4055C25.7843 10.4055 24.0132 12.4446 24.0132 12.4434C24.1072 13.2339 24.1072 14.0328 24.0132 14.8233L25.7843 16.8623C25.8855 16.979 25.9543 17.1201 25.9838 17.2717C26.0133 17.4233 26.0024 17.58 25.9523 17.7261C25.4222 19.2747 24.5963 20.7056 23.5207 21.9394C23.3139 22.1756 22.9966 22.2849 22.6886 22.225C22.6886 22.225 20.0361 21.7102 20.0373 21.7102C19.3998 22.1871 18.7078 22.5863 17.9759 22.8996L17.0956 25.4534C17.0454 25.5993 16.9577 25.7295 16.8414 25.831C16.7251 25.9324 16.5842 26.0016 16.4328 26.0316C14.8262 26.3466 13.1738 26.3466 11.5672 26.0316C11.4158 26.0016 11.2749 25.9324 11.1586 25.831C11.0423 25.7295 10.9546 25.5993 10.9044 25.4534C10.9044 25.4534 10.0241 22.8996 10.0241 22.9007C9.29254 22.5871 8.60091 22.1875 7.9639 21.7102L5.31138 22.2251C5.00346 22.285 4.68614 22.1757 4.4793 21.9395C3.40368 20.7056 2.57786 19.2747 2.04767 17.7261C1.99758 17.5801 1.98673 17.4234 2.01622 17.2718C2.04571 17.1202 2.11451 16.979 2.21571 16.8624C2.21571 16.8624 3.98684 14.8233 3.98684 14.8245C3.89282 14.0339 3.89282 13.2351 3.98684 12.4446L2.21576 10.4055C2.11456 10.2889 2.04576 10.1477 2.01627 9.99608C1.98677 9.84449 1.9976 9.68781 2.04767 9.54172C2.57788 7.99315 3.40368 6.56224 4.47925 5.32841C4.6861 5.09217 5.00342 4.98289 5.31133 5.04285C5.31133 5.04285 7.96386 5.55761 7.9627 5.55761C8.6002 5.08075 9.2922 4.68149 10.0241 4.36825L10.9043 1.81445C10.9546 1.66851 11.0422 1.5383 11.1586 1.43684C11.2749 1.33537 11.4158 1.2662 11.5672 1.23623C13.1737 0.921258 14.8262 0.921258 16.4327 1.23623C16.5842 1.26618 16.7251 1.33535 16.8414 1.43682C16.9577 1.53828 17.0454 1.6685 17.0956 1.81445ZM14 8.43818C11.1324 8.43818 8.80419 10.7663 8.80419 13.634C8.80419 16.5017 11.1323 18.8298 14 18.8298C16.8677 18.8298 19.1958 16.5016 19.1958 13.634C19.1958 10.7663 16.8676 8.43818 14 8.43818ZM14 10.2011C15.8945 10.2011 17.4329 11.7395 17.4329 13.634C17.4329 15.5284 15.8945 17.0669 14 17.0669C12.1055 17.0669 10.5671 15.5285 10.5671 13.634C10.5671 11.7394 12.1055 10.2011 14 10.2011Z" fill="white"/>
</svg>
