<svg width="24" height="24" viewBox="0 0 24 24" fill="none" xmlns="http://www.w3.org/2000/svg">
<path d="M12.6702 17.6183C12.6702 16.2967 13.1847 15.054 14.1193 14.1193C15.054 13.1847 16.2963 12.6702 17.6183 12.6702C18.7033 12.6702 19.7351 13.0175 20.5871 13.6589C20.6343 12.9688 20.6636 12.1967 20.6648 11.3326C20.6625 9.15901 20.4801 7.5674 20.2854 6.39778C19.945 4.47063 18.1945 2.72021 16.2674 2.37972C15.0978 2.18472 13.5061 2.00229 11.3322 2C9.15863 2.00229 7.56664 2.18472 6.39702 2.37934C4.47025 2.71982 2.71982 4.47025 2.37934 6.3974C2.18472 7.56702 2.00267 9.15863 2 11.3322C2.00267 13.5058 2.18472 15.0978 2.37934 16.2674C2.71982 18.1945 4.47025 19.945 6.3974 20.2854C7.56702 20.4801 9.15863 20.6621 11.3326 20.6648C12.1967 20.6636 12.9688 20.6343 13.6589 20.5871C13.0175 19.7351 12.6702 18.7037 12.6702 17.6183ZM6.72113 6.51014H15.9436C16.5401 6.51014 17.0238 6.99383 17.0238 7.59025C17.0238 8.18668 16.5401 8.67037 15.9436 8.67037H6.72113C6.12471 8.67037 5.64102 8.18668 5.64102 7.59025C5.64102 6.99383 6.12471 6.51014 6.72113 6.51014ZM6.72113 13.1809C6.12471 13.1809 5.64102 12.6972 5.64102 12.1008C5.64102 11.5043 6.12471 11.0207 6.72113 11.0207H12.135C12.7315 11.0207 13.2152 11.5043 13.2152 12.1008C13.2152 12.6972 12.7315 13.1809 12.135 13.1809H6.72113Z" fill="black"/>
<path d="M17.6183 13.7363C15.4744 13.7363 13.7366 15.4742 13.7366 17.618C13.7366 19.7619 15.4744 21.4998 17.6183 21.4998C19.7621 21.4998 21.5 19.7619 21.5 17.618C21.5 15.4742 19.7621 13.7363 17.6183 13.7363ZM18.3419 19.5441C18.3419 19.9436 18.0178 20.2677 17.6183 20.2677C17.2188 20.2677 16.8947 19.9436 16.8947 19.5441V17.6348C16.8947 17.2353 17.2188 16.9112 17.6183 16.9112C18.0178 16.9112 18.3419 17.2353 18.3419 17.6348V19.5441ZM18.3122 16.0859C18.2856 16.2367 18.1484 16.3738 17.9976 16.4004C17.9062 16.4157 17.7813 16.4298 17.6111 16.4301C17.4408 16.4301 17.3163 16.4157 17.2245 16.4004C17.0737 16.3738 16.9366 16.2367 16.9099 16.0859C16.8947 15.9944 16.8806 15.8695 16.8802 15.6993C16.8802 15.529 16.8947 15.4045 16.9099 15.3127C16.9366 15.1619 17.0737 15.0248 17.2245 14.9981C17.3159 14.9829 17.4408 14.9688 17.6111 14.9684C17.7813 14.9684 17.9058 14.9829 17.9976 14.9981C18.1484 15.0248 18.2856 15.1619 18.3122 15.3127C18.3275 15.4041 18.3415 15.529 18.3419 15.6993C18.3419 15.8695 18.3275 15.9941 18.3122 16.0859Z" fill="black"/>
</svg>
