<svg width="28" height="28" viewBox="0 0 28 28" fill="none" xmlns="http://www.w3.org/2000/svg">
<path d="M15.7624 13.0635C15.115 13.0635 14.5884 13.5901 14.5884 14.2375C14.5884 14.8848 15.115 15.4115 15.7624 15.4115C16.4097 15.4115 16.9364 14.8848 16.9364 14.2375C16.9364 13.5901 16.4097 13.0635 15.7624 13.0635ZM16.54 9.50488V11.6219C17.1429 11.8014 17.659 12.1839 18.0087 12.6901L20.0223 12.0358C19.3375 10.7162 18.0574 9.75327 16.54 9.50488ZM20.504 13.5144L18.4898 14.1689C18.4904 14.1918 18.4916 14.2145 18.4916 14.2375C18.4916 14.8608 18.2811 15.4355 17.9281 15.8955L19.1717 17.6071C20.0286 16.7403 20.5584 15.5497 20.5584 14.2375C20.5584 13.9918 20.5398 13.7503 20.504 13.5144Z" fill="white"/>
<path d="M15.7625 4H6.30262C5.8732 4 5.52505 4.34814 5.52505 4.77756C5.52505 5.20699 5.8732 5.55513 6.30262 5.55513H10.3445C9.49327 6.08837 8.72452 6.7431 8.06259 7.49857H2.77756C2.34814 7.49862 2 7.84681 2 8.27623C2 8.70565 2.34814 9.05379 2.77756 9.05379H6.93773C6.04063 10.5752 5.52501 12.3471 5.52501 14.2375C5.52501 16.437 6.22246 18.4768 7.40756 20.1473H5.20133C4.77191 20.1473 4.42377 20.4955 4.42377 20.9249C4.42377 21.3543 4.77191 21.7025 5.20133 21.7025H8.76473C9.2507 22.1584 9.77976 22.5661 10.3445 22.9198H2.85777C2.42834 22.9198 2.0802 23.2679 2.0802 23.6973C2.0802 24.1268 2.42834 24.4749 2.85777 24.4749H15.7625C21.4076 24.4749 26 19.8824 26 14.2374C26 8.59249 21.4075 4 15.7625 4ZM19.5396 19.3403C19.5253 19.3524 19.5111 19.3646 19.4957 19.3757C19.4784 19.3883 19.4606 19.4001 19.4426 19.411C18.4037 20.1522 17.1332 20.5887 15.7625 20.5887C14.3919 20.5887 13.1214 20.1522 12.0824 19.411C12.0643 19.4 12.0465 19.3882 12.0293 19.3757C12.014 19.3645 11.9998 19.3523 11.9854 19.3403C10.4247 18.182 9.41128 16.3259 9.41128 14.2375C9.41128 10.7354 12.2604 7.88623 15.7625 7.88623C19.2646 7.88623 22.1138 10.7354 22.1138 14.2375C22.1138 16.326 21.1004 18.182 19.5396 19.3403Z" fill="white"/>
<path d="M11.5025 12.0358L13.516 12.6901C13.8659 12.1839 14.3819 11.8015 14.9848 11.6219V9.50488C13.4675 9.75332 12.1874 10.7162 11.5025 12.0358ZM16.6708 16.8107C16.3791 16.9141 16.0719 16.9669 15.7624 16.9668C15.453 16.9669 15.1457 16.9141 14.854 16.8107L13.6102 18.5227C14.2578 18.8493 14.9889 19.0336 15.7624 19.0336C16.5359 19.0336 17.2671 18.8493 17.9147 18.5227L16.6708 16.8107ZM13.0333 14.2375C13.0333 14.2146 13.0344 14.1918 13.035 14.169L11.0208 13.5145C10.9845 13.7538 10.9663 13.9955 10.9663 14.2375C10.9663 15.5498 11.4962 16.7404 12.3531 17.6072L13.5967 15.8956C13.2437 15.4356 13.0333 14.8608 13.0333 14.2375Z" fill="white"/>
</svg>
